<mxfile host="app.diagrams.net" agent="Mozilla/5.0 (X11; Ubuntu; Linux x86_64; rv:139.0) Gecko/20100101 Firefox/139.0" version="27.1.4">
  <diagram name="Page-1" id="2YBvvXClWsGukQMizWep">
    <mxGraphModel dx="1143" dy="667" grid="1" gridSize="10" guides="1" tooltips="1" connect="1" arrows="1" fold="1" page="1" pageScale="1" pageWidth="850" pageHeight="1100" math="0" shadow="0">
      <root>
        <mxCell id="0" />
        <mxCell id="1" parent="0" />
        <mxCell id="aM9ryv3xv72pqoxQDRHE-1" value="&lt;div&gt;Dialog&lt;/div&gt;&lt;div&gt;Component&lt;/div&gt;" style="shape=umlLifeline;perimeter=lifelinePerimeter;whiteSpace=wrap;html=1;container=0;dropTarget=0;collapsible=0;recursiveResize=0;outlineConnect=0;portConstraint=eastwest;newEdgeStyle={&quot;edgeStyle&quot;:&quot;elbowEdgeStyle&quot;,&quot;elbow&quot;:&quot;vertical&quot;,&quot;curved&quot;:0,&quot;rounded&quot;:0};" parent="1" vertex="1">
          <mxGeometry x="25" y="37" width="100" height="1563" as="geometry" />
        </mxCell>
        <mxCell id="aM9ryv3xv72pqoxQDRHE-3" value="TICK" style="html=1;verticalAlign=bottom;startArrow=oval;endArrow=block;startSize=8;edgeStyle=elbowEdgeStyle;elbow=vertical;curved=0;rounded=0;" parent="aM9ryv3xv72pqoxQDRHE-1" target="aM9ryv3xv72pqoxQDRHE-6" edge="1">
          <mxGeometry relative="1" as="geometry">
            <mxPoint x="140" y="70" as="sourcePoint" />
            <Array as="points">
              <mxPoint x="190" y="80" />
            </Array>
          </mxGeometry>
        </mxCell>
        <mxCell id="aM9ryv3xv72pqoxQDRHE-4" value="" style="html=1;points=[];perimeter=orthogonalPerimeter;outlineConnect=0;targetShapes=umlLifeline;portConstraint=eastwest;newEdgeStyle={&quot;edgeStyle&quot;:&quot;elbowEdgeStyle&quot;,&quot;elbow&quot;:&quot;vertical&quot;,&quot;curved&quot;:0,&quot;rounded&quot;:0};" parent="aM9ryv3xv72pqoxQDRHE-1" vertex="1">
          <mxGeometry x="45" y="120" width="10" height="80" as="geometry" />
        </mxCell>
        <mxCell id="3GDsFyGk5Co5i_4Q3vj2-58" value="" style="html=1;points=[];perimeter=orthogonalPerimeter;outlineConnect=0;targetShapes=umlLifeline;portConstraint=eastwest;newEdgeStyle={&quot;edgeStyle&quot;:&quot;elbowEdgeStyle&quot;,&quot;elbow&quot;:&quot;vertical&quot;,&quot;curved&quot;:0,&quot;rounded&quot;:0};" parent="aM9ryv3xv72pqoxQDRHE-1" vertex="1">
          <mxGeometry x="45" y="270" width="10" height="180" as="geometry" />
        </mxCell>
        <mxCell id="3GDsFyGk5Co5i_4Q3vj2-84" value="" style="html=1;points=[];perimeter=orthogonalPerimeter;outlineConnect=0;targetShapes=umlLifeline;portConstraint=eastwest;newEdgeStyle={&quot;edgeStyle&quot;:&quot;elbowEdgeStyle&quot;,&quot;elbow&quot;:&quot;vertical&quot;,&quot;curved&quot;:0,&quot;rounded&quot;:0};" parent="aM9ryv3xv72pqoxQDRHE-1" vertex="1">
          <mxGeometry x="45" y="767" width="10" height="190" as="geometry" />
        </mxCell>
        <mxCell id="3GDsFyGk5Co5i_4Q3vj2-100" value="" style="html=1;points=[];perimeter=orthogonalPerimeter;outlineConnect=0;targetShapes=umlLifeline;portConstraint=eastwest;newEdgeStyle={&quot;edgeStyle&quot;:&quot;elbowEdgeStyle&quot;,&quot;elbow&quot;:&quot;vertical&quot;,&quot;curved&quot;:0,&quot;rounded&quot;:0};" parent="aM9ryv3xv72pqoxQDRHE-1" vertex="1">
          <mxGeometry x="45" y="1017" width="10" height="120" as="geometry" />
        </mxCell>
        <mxCell id="3GDsFyGk5Co5i_4Q3vj2-116" value="" style="html=1;points=[];perimeter=orthogonalPerimeter;outlineConnect=0;targetShapes=umlLifeline;portConstraint=eastwest;newEdgeStyle={&quot;edgeStyle&quot;:&quot;elbowEdgeStyle&quot;,&quot;elbow&quot;:&quot;vertical&quot;,&quot;curved&quot;:0,&quot;rounded&quot;:0};" parent="aM9ryv3xv72pqoxQDRHE-1" vertex="1">
          <mxGeometry x="45" y="1207" width="10" height="120" as="geometry" />
        </mxCell>
        <mxCell id="IwK8Sl99HdJAbC6vdd_C-9" value="" style="html=1;points=[];perimeter=orthogonalPerimeter;outlineConnect=0;targetShapes=umlLifeline;portConstraint=eastwest;newEdgeStyle={&quot;edgeStyle&quot;:&quot;elbowEdgeStyle&quot;,&quot;elbow&quot;:&quot;vertical&quot;,&quot;curved&quot;:0,&quot;rounded&quot;:0};" parent="aM9ryv3xv72pqoxQDRHE-1" vertex="1">
          <mxGeometry x="45" y="510" width="10" height="180" as="geometry" />
        </mxCell>
        <mxCell id="IwK8Sl99HdJAbC6vdd_C-22" value="" style="html=1;points=[];perimeter=orthogonalPerimeter;outlineConnect=0;targetShapes=umlLifeline;portConstraint=eastwest;newEdgeStyle={&quot;edgeStyle&quot;:&quot;elbowEdgeStyle&quot;,&quot;elbow&quot;:&quot;vertical&quot;,&quot;curved&quot;:0,&quot;rounded&quot;:0};" parent="aM9ryv3xv72pqoxQDRHE-1" vertex="1">
          <mxGeometry x="45" y="1370" width="10" height="150" as="geometry" />
        </mxCell>
        <mxCell id="aM9ryv3xv72pqoxQDRHE-5" value="Dialog Skill" style="shape=umlLifeline;perimeter=lifelinePerimeter;whiteSpace=wrap;html=1;container=0;dropTarget=0;collapsible=0;recursiveResize=0;outlineConnect=0;portConstraint=eastwest;newEdgeStyle={&quot;edgeStyle&quot;:&quot;elbowEdgeStyle&quot;,&quot;elbow&quot;:&quot;vertical&quot;,&quot;curved&quot;:0,&quot;rounded&quot;:0};" parent="1" vertex="1">
          <mxGeometry x="215" y="37" width="100" height="1563" as="geometry" />
        </mxCell>
        <mxCell id="aM9ryv3xv72pqoxQDRHE-6" value="" style="html=1;points=[];perimeter=orthogonalPerimeter;outlineConnect=0;targetShapes=umlLifeline;portConstraint=eastwest;newEdgeStyle={&quot;edgeStyle&quot;:&quot;elbowEdgeStyle&quot;,&quot;elbow&quot;:&quot;vertical&quot;,&quot;curved&quot;:0,&quot;rounded&quot;:0};" parent="aM9ryv3xv72pqoxQDRHE-5" vertex="1">
          <mxGeometry x="45" y="80" width="10" height="1040" as="geometry" />
        </mxCell>
        <mxCell id="3GDsFyGk5Co5i_4Q3vj2-50" value="" style="html=1;points=[];perimeter=orthogonalPerimeter;outlineConnect=0;targetShapes=umlLifeline;portConstraint=eastwest;newEdgeStyle={&quot;edgeStyle&quot;:&quot;elbowEdgeStyle&quot;,&quot;elbow&quot;:&quot;vertical&quot;,&quot;curved&quot;:0,&quot;rounded&quot;:0};" parent="aM9ryv3xv72pqoxQDRHE-5" vertex="1">
          <mxGeometry x="40" y="120" width="20" height="100" as="geometry" />
        </mxCell>
        <mxCell id="3GDsFyGk5Co5i_4Q3vj2-53" value="" style="html=1;points=[];perimeter=orthogonalPerimeter;outlineConnect=0;targetShapes=umlLifeline;portConstraint=eastwest;newEdgeStyle={&quot;edgeStyle&quot;:&quot;elbowEdgeStyle&quot;,&quot;elbow&quot;:&quot;vertical&quot;,&quot;curved&quot;:0,&quot;rounded&quot;:0};" parent="aM9ryv3xv72pqoxQDRHE-5" vertex="1">
          <mxGeometry x="40" y="270" width="20" height="200" as="geometry" />
        </mxCell>
        <mxCell id="3GDsFyGk5Co5i_4Q3vj2-80" value="" style="html=1;points=[];perimeter=orthogonalPerimeter;outlineConnect=0;targetShapes=umlLifeline;portConstraint=eastwest;newEdgeStyle={&quot;edgeStyle&quot;:&quot;elbowEdgeStyle&quot;,&quot;elbow&quot;:&quot;vertical&quot;,&quot;curved&quot;:0,&quot;rounded&quot;:0};" parent="aM9ryv3xv72pqoxQDRHE-5" vertex="1">
          <mxGeometry x="40" y="777" width="20" height="170" as="geometry" />
        </mxCell>
        <mxCell id="3GDsFyGk5Co5i_4Q3vj2-97" value="" style="html=1;points=[];perimeter=orthogonalPerimeter;outlineConnect=0;targetShapes=umlLifeline;portConstraint=eastwest;newEdgeStyle={&quot;edgeStyle&quot;:&quot;elbowEdgeStyle&quot;,&quot;elbow&quot;:&quot;vertical&quot;,&quot;curved&quot;:0,&quot;rounded&quot;:0};" parent="aM9ryv3xv72pqoxQDRHE-5" vertex="1">
          <mxGeometry x="40" y="987" width="20" height="140" as="geometry" />
        </mxCell>
        <mxCell id="3GDsFyGk5Co5i_4Q3vj2-117" value="" style="html=1;points=[];perimeter=orthogonalPerimeter;outlineConnect=0;targetShapes=umlLifeline;portConstraint=eastwest;newEdgeStyle={&quot;edgeStyle&quot;:&quot;elbowEdgeStyle&quot;,&quot;elbow&quot;:&quot;vertical&quot;,&quot;curved&quot;:0,&quot;rounded&quot;:0};" parent="aM9ryv3xv72pqoxQDRHE-5" vertex="1">
          <mxGeometry x="40" y="1187" width="20" height="140" as="geometry" />
        </mxCell>
        <mxCell id="IwK8Sl99HdJAbC6vdd_C-4" value="" style="html=1;points=[];perimeter=orthogonalPerimeter;outlineConnect=0;targetShapes=umlLifeline;portConstraint=eastwest;newEdgeStyle={&quot;edgeStyle&quot;:&quot;elbowEdgeStyle&quot;,&quot;elbow&quot;:&quot;vertical&quot;,&quot;curved&quot;:0,&quot;rounded&quot;:0};" parent="aM9ryv3xv72pqoxQDRHE-5" vertex="1">
          <mxGeometry x="40" y="500" width="20" height="200" as="geometry" />
        </mxCell>
        <mxCell id="IwK8Sl99HdJAbC6vdd_C-23" value="" style="html=1;points=[];perimeter=orthogonalPerimeter;outlineConnect=0;targetShapes=umlLifeline;portConstraint=eastwest;newEdgeStyle={&quot;edgeStyle&quot;:&quot;elbowEdgeStyle&quot;,&quot;elbow&quot;:&quot;vertical&quot;,&quot;curved&quot;:0,&quot;rounded&quot;:0};" parent="aM9ryv3xv72pqoxQDRHE-5" vertex="1">
          <mxGeometry x="40" y="1360" width="20" height="170" as="geometry" />
        </mxCell>
        <mxCell id="3GDsFyGk5Co5i_4Q3vj2-7" style="edgeStyle=elbowEdgeStyle;rounded=0;orthogonalLoop=1;jettySize=auto;html=1;elbow=vertical;curved=0;entryX=0;entryY=0.5;entryDx=0;entryDy=0;fillColor=#008a00;strokeColor=#005700;strokeWidth=3;" parent="1" source="aM9ryv3xv72pqoxQDRHE-6" target="3GDsFyGk5Co5i_4Q3vj2-18" edge="1">
          <mxGeometry relative="1" as="geometry">
            <mxPoint x="453.79999999999995" y="142.33000000000004" as="targetPoint" />
          </mxGeometry>
        </mxCell>
        <mxCell id="3GDsFyGk5Co5i_4Q3vj2-12" value="CMD_TICK" style="edgeLabel;html=1;align=center;verticalAlign=middle;resizable=0;points=[];" parent="3GDsFyGk5Co5i_4Q3vj2-7" vertex="1" connectable="0">
          <mxGeometry x="-0.1745" y="1" relative="1" as="geometry">
            <mxPoint as="offset" />
          </mxGeometry>
        </mxCell>
        <mxCell id="3GDsFyGk5Co5i_4Q3vj2-17" style="edgeStyle=elbowEdgeStyle;rounded=0;orthogonalLoop=1;jettySize=auto;html=1;elbow=vertical;curved=0;entryX=1.2;entryY=0.288;entryDx=0;entryDy=0;entryPerimeter=0;" parent="1" source="3GDsFyGk5Co5i_4Q3vj2-50" target="aM9ryv3xv72pqoxQDRHE-4" edge="1">
          <mxGeometry relative="1" as="geometry" />
        </mxCell>
        <mxCell id="3GDsFyGk5Co5i_4Q3vj2-24" value="WaitForInteraction()" style="edgeLabel;html=1;align=center;verticalAlign=middle;resizable=0;points=[];fontSize=14;" parent="3GDsFyGk5Co5i_4Q3vj2-17" vertex="1" connectable="0">
          <mxGeometry x="0.1605" y="-1" relative="1" as="geometry">
            <mxPoint x="10" as="offset" />
          </mxGeometry>
        </mxCell>
        <mxCell id="3GDsFyGk5Co5i_4Q3vj2-21" value="" style="edgeStyle=orthogonalEdgeStyle;rounded=0;orthogonalLoop=1;jettySize=auto;html=1;strokeWidth=3;fillColor=#008a00;strokeColor=#005700;" parent="1" source="3GDsFyGk5Co5i_4Q3vj2-18" target="3GDsFyGk5Co5i_4Q3vj2-20" edge="1">
          <mxGeometry relative="1" as="geometry">
            <Array as="points">
              <mxPoint x="562" y="177" />
              <mxPoint x="562" y="177" />
            </Array>
          </mxGeometry>
        </mxCell>
        <mxCell id="3GDsFyGk5Co5i_4Q3vj2-32" value="IsBeginningOfConversation=True" style="edgeLabel;html=1;align=center;verticalAlign=middle;resizable=0;points=[];fontSize=14;" parent="3GDsFyGk5Co5i_4Q3vj2-21" vertex="1" connectable="0">
          <mxGeometry x="-0.3734" y="-1" relative="1" as="geometry">
            <mxPoint x="52" y="4" as="offset" />
          </mxGeometry>
        </mxCell>
        <mxCell id="3GDsFyGk5Co5i_4Q3vj2-18" value="IDLE" style="ellipse;whiteSpace=wrap;html=1;aspect=fixed;" parent="1" vertex="1">
          <mxGeometry x="544.63" y="117" width="33.75" height="33.75" as="geometry" />
        </mxCell>
        <mxCell id="3GDsFyGk5Co5i_4Q3vj2-31" value="" style="edgeStyle=orthogonalEdgeStyle;rounded=0;orthogonalLoop=1;jettySize=auto;html=1;fillColor=#008a00;strokeColor=#3333FF;strokeWidth=3;" parent="1" source="3GDsFyGk5Co5i_4Q3vj2-20" target="3GDsFyGk5Co5i_4Q3vj2-30" edge="1">
          <mxGeometry relative="1" as="geometry" />
        </mxCell>
        <mxCell id="3GDsFyGk5Co5i_4Q3vj2-20" value="&lt;font style=&quot;font-size: 14px;&quot;&gt;Wait For Interaction&lt;/font&gt;" style="ellipse;whiteSpace=wrap;html=1;" parent="1" vertex="1">
          <mxGeometry x="519" y="197" width="80" height="80" as="geometry" />
        </mxCell>
        <mxCell id="3GDsFyGk5Co5i_4Q3vj2-56" style="edgeStyle=orthogonalEdgeStyle;rounded=0;orthogonalLoop=1;jettySize=auto;html=1;entryX=1.038;entryY=0.176;entryDx=0;entryDy=0;entryPerimeter=0;" parent="1" source="3GDsFyGk5Co5i_4Q3vj2-30" target="3GDsFyGk5Co5i_4Q3vj2-53" edge="1">
          <mxGeometry relative="1" as="geometry">
            <Array as="points">
              <mxPoint x="305" y="327" />
              <mxPoint x="305" y="342" />
            </Array>
          </mxGeometry>
        </mxCell>
        <mxCell id="3GDsFyGk5Co5i_4Q3vj2-57" value="ManageContext.Call" style="edgeLabel;html=1;align=center;verticalAlign=middle;resizable=0;points=[];fontSize=14;" parent="3GDsFyGk5Co5i_4Q3vj2-56" vertex="1" connectable="0">
          <mxGeometry x="0.1836" y="-1" relative="1" as="geometry">
            <mxPoint x="32" as="offset" />
          </mxGeometry>
        </mxCell>
        <mxCell id="3GDsFyGk5Co5i_4Q3vj2-68" value="" style="edgeStyle=orthogonalEdgeStyle;rounded=0;orthogonalLoop=1;jettySize=auto;html=1;fillColor=#f8cecc;strokeColor=#b85450;strokeWidth=3;" parent="1" source="3GDsFyGk5Co5i_4Q3vj2-30" target="3GDsFyGk5Co5i_4Q3vj2-67" edge="1">
          <mxGeometry relative="1" as="geometry" />
        </mxCell>
        <mxCell id="3GDsFyGk5Co5i_4Q3vj2-30" value="&lt;div&gt;Manage&lt;/div&gt;&lt;div&gt;Context&lt;/div&gt;" style="ellipse;whiteSpace=wrap;html=1;" parent="1" vertex="1">
          <mxGeometry x="519" y="314.5" width="80" height="80" as="geometry" />
        </mxCell>
        <mxCell id="3GDsFyGk5Co5i_4Q3vj2-51" style="edgeStyle=orthogonalEdgeStyle;rounded=0;orthogonalLoop=1;jettySize=auto;html=1;exitX=0.08;exitY=0.185;exitDx=0;exitDy=0;exitPerimeter=0;" parent="1" source="3GDsFyGk5Co5i_4Q3vj2-20" edge="1">
          <mxGeometry relative="1" as="geometry">
            <mxPoint x="276" y="170" as="targetPoint" />
            <Array as="points">
              <mxPoint x="435" y="212" />
              <mxPoint x="435" y="170" />
            </Array>
          </mxGeometry>
        </mxCell>
        <mxCell id="3GDsFyGk5Co5i_4Q3vj2-52" value="WaitForInteraction.Call" style="edgeLabel;html=1;align=center;verticalAlign=middle;resizable=0;points=[];fontSize=14;" parent="3GDsFyGk5Co5i_4Q3vj2-51" vertex="1" connectable="0">
          <mxGeometry x="-0.0042" y="1" relative="1" as="geometry">
            <mxPoint x="-30" as="offset" />
          </mxGeometry>
        </mxCell>
        <mxCell id="3GDsFyGk5Co5i_4Q3vj2-54" style="edgeStyle=elbowEdgeStyle;rounded=0;orthogonalLoop=1;jettySize=auto;html=1;elbow=vertical;curved=0;entryX=0;entryY=0.5;entryDx=0;entryDy=0;fillColor=#008a00;strokeColor=#3333FF;strokeWidth=3;" parent="1" source="3GDsFyGk5Co5i_4Q3vj2-50" target="3GDsFyGk5Co5i_4Q3vj2-20" edge="1">
          <mxGeometry relative="1" as="geometry" />
        </mxCell>
        <mxCell id="3GDsFyGk5Co5i_4Q3vj2-55" value="Interaction" style="edgeLabel;html=1;align=center;verticalAlign=middle;resizable=0;points=[];fontSize=14;" parent="3GDsFyGk5Co5i_4Q3vj2-54" vertex="1" connectable="0">
          <mxGeometry x="-0.1408" y="1" relative="1" as="geometry">
            <mxPoint as="offset" />
          </mxGeometry>
        </mxCell>
        <mxCell id="3GDsFyGk5Co5i_4Q3vj2-59" style="edgeStyle=elbowEdgeStyle;rounded=0;orthogonalLoop=1;jettySize=auto;html=1;elbow=vertical;curved=0;entryX=1.148;entryY=0.158;entryDx=0;entryDy=0;entryPerimeter=0;" parent="1" edge="1">
          <mxGeometry relative="1" as="geometry">
            <mxPoint x="255" y="367" as="sourcePoint" />
            <mxPoint x="81.48000000000002" y="367.03999999999996" as="targetPoint" />
          </mxGeometry>
        </mxCell>
        <mxCell id="3GDsFyGk5Co5i_4Q3vj2-125" value="ManageContext()" style="edgeLabel;html=1;align=center;verticalAlign=middle;resizable=0;points=[];fontSize=14;" parent="3GDsFyGk5Co5i_4Q3vj2-59" vertex="1" connectable="0">
          <mxGeometry x="-0.0262" y="1" relative="1" as="geometry">
            <mxPoint as="offset" />
          </mxGeometry>
        </mxCell>
        <mxCell id="3GDsFyGk5Co5i_4Q3vj2-60" style="edgeStyle=elbowEdgeStyle;rounded=0;orthogonalLoop=1;jettySize=auto;html=1;elbow=vertical;curved=0;exitX=1.133;exitY=0.779;exitDx=0;exitDy=0;exitPerimeter=0;" parent="1" source="3GDsFyGk5Co5i_4Q3vj2-58" edge="1">
          <mxGeometry relative="1" as="geometry">
            <mxPoint x="256" y="447" as="targetPoint" />
            <Array as="points">
              <mxPoint x="165" y="447" />
            </Array>
          </mxGeometry>
        </mxCell>
        <mxCell id="3GDsFyGk5Co5i_4Q3vj2-61" value="Language&lt;br&gt;Context&lt;br&gt;isPoiEnded?" style="edgeLabel;html=1;align=center;verticalAlign=middle;resizable=0;points=[];fontSize=14;" parent="3GDsFyGk5Co5i_4Q3vj2-60" vertex="1" connectable="0">
          <mxGeometry x="0.0853" y="1" relative="1" as="geometry">
            <mxPoint x="-11" as="offset" />
          </mxGeometry>
        </mxCell>
        <mxCell id="3GDsFyGk5Co5i_4Q3vj2-69" style="edgeStyle=orthogonalEdgeStyle;rounded=0;orthogonalLoop=1;jettySize=auto;html=1;entryX=0.5;entryY=0;entryDx=0;entryDy=0;exitX=1;exitY=0.5;exitDx=0;exitDy=0;" parent="1" source="3GDsFyGk5Co5i_4Q3vj2-67" target="3GDsFyGk5Co5i_4Q3vj2-18" edge="1">
          <mxGeometry relative="1" as="geometry">
            <Array as="points">
              <mxPoint x="770" y="355" />
              <mxPoint x="770" y="87" />
              <mxPoint x="562" y="87" />
            </Array>
          </mxGeometry>
        </mxCell>
        <mxCell id="3GDsFyGk5Co5i_4Q3vj2-72" value="True" style="edgeLabel;html=1;align=center;verticalAlign=middle;resizable=0;points=[];fontSize=14;" parent="3GDsFyGk5Co5i_4Q3vj2-69" vertex="1" connectable="0">
          <mxGeometry x="-0.8934" y="2" relative="1" as="geometry">
            <mxPoint as="offset" />
          </mxGeometry>
        </mxCell>
        <mxCell id="3GDsFyGk5Co5i_4Q3vj2-74" value="" style="edgeStyle=orthogonalEdgeStyle;rounded=0;orthogonalLoop=1;jettySize=auto;html=1;entryX=1;entryY=0.5;entryDx=0;entryDy=0;exitX=0.5;exitY=1;exitDx=0;exitDy=0;" parent="1" source="3GDsFyGk5Co5i_4Q3vj2-67" target="IwK8Sl99HdJAbC6vdd_C-1" edge="1">
          <mxGeometry relative="1" as="geometry">
            <mxPoint x="579" y="567" as="targetPoint" />
            <Array as="points">
              <mxPoint x="699" y="567" />
            </Array>
          </mxGeometry>
        </mxCell>
        <mxCell id="3GDsFyGk5Co5i_4Q3vj2-75" value="False" style="edgeLabel;html=1;align=center;verticalAlign=middle;resizable=0;points=[];fontSize=14;" parent="3GDsFyGk5Co5i_4Q3vj2-74" vertex="1" connectable="0">
          <mxGeometry x="-0.2446" relative="1" as="geometry">
            <mxPoint as="offset" />
          </mxGeometry>
        </mxCell>
        <mxCell id="3GDsFyGk5Co5i_4Q3vj2-67" value="&lt;div&gt;Is Poi&lt;/div&gt;&lt;div&gt;Ended?&lt;/div&gt;" style="rhombus;whiteSpace=wrap;html=1;" parent="1" vertex="1">
          <mxGeometry x="659" y="314.5" width="80" height="80" as="geometry" />
        </mxCell>
        <mxCell id="3GDsFyGk5Co5i_4Q3vj2-93" value="" style="edgeStyle=orthogonalEdgeStyle;rounded=0;orthogonalLoop=1;jettySize=auto;html=1;fillColor=#e1d5e7;strokeColor=#9673a6;strokeWidth=3;exitX=0.5;exitY=1;exitDx=0;exitDy=0;" parent="1" source="3GDsFyGk5Co5i_4Q3vj2-77" target="3GDsFyGk5Co5i_4Q3vj2-92" edge="1">
          <mxGeometry relative="1" as="geometry">
            <mxPoint x="452" y="567.75" as="sourcePoint" />
          </mxGeometry>
        </mxCell>
        <mxCell id="IwK8Sl99HdJAbC6vdd_C-42" value="&lt;font style=&quot;font-size: 14px;&quot;&gt;duplicateIndex&lt;/font&gt;" style="edgeLabel;html=1;align=center;verticalAlign=middle;resizable=0;points=[];" parent="3GDsFyGk5Co5i_4Q3vj2-93" vertex="1" connectable="0">
          <mxGeometry x="-0.7919" relative="1" as="geometry">
            <mxPoint as="offset" />
          </mxGeometry>
        </mxCell>
        <mxCell id="3GDsFyGk5Co5i_4Q3vj2-77" value="&lt;div&gt;Check&lt;/div&gt;&lt;div&gt;Duplicate&lt;/div&gt;" style="ellipse;whiteSpace=wrap;html=1;" parent="1" vertex="1">
          <mxGeometry x="578.38" y="750" width="80" height="80" as="geometry" />
        </mxCell>
        <mxCell id="3GDsFyGk5Co5i_4Q3vj2-81" style="edgeStyle=orthogonalEdgeStyle;rounded=0;orthogonalLoop=1;jettySize=auto;html=1;entryX=0.993;entryY=0.171;entryDx=0;entryDy=0;entryPerimeter=0;" parent="1" source="3GDsFyGk5Co5i_4Q3vj2-77" target="3GDsFyGk5Co5i_4Q3vj2-80" edge="1">
          <mxGeometry relative="1" as="geometry">
            <Array as="points">
              <mxPoint x="355" y="757" />
              <mxPoint x="355" y="843" />
            </Array>
          </mxGeometry>
        </mxCell>
        <mxCell id="3GDsFyGk5Co5i_4Q3vj2-82" value="&lt;font&gt;CheckDuplicate.Call&lt;/font&gt;" style="edgeLabel;html=1;align=center;verticalAlign=middle;resizable=0;points=[];fontSize=14;" parent="3GDsFyGk5Co5i_4Q3vj2-81" vertex="1" connectable="0">
          <mxGeometry x="0.3103" y="1" relative="1" as="geometry">
            <mxPoint x="29" y="-34" as="offset" />
          </mxGeometry>
        </mxCell>
        <mxCell id="3GDsFyGk5Co5i_4Q3vj2-85" style="edgeStyle=elbowEdgeStyle;rounded=0;orthogonalLoop=1;jettySize=auto;html=1;elbow=vertical;curved=0;entryX=1.057;entryY=0.272;entryDx=0;entryDy=0;entryPerimeter=0;" parent="1" source="3GDsFyGk5Co5i_4Q3vj2-80" target="3GDsFyGk5Co5i_4Q3vj2-84" edge="1">
          <mxGeometry relative="1" as="geometry" />
        </mxCell>
        <mxCell id="3GDsFyGk5Co5i_4Q3vj2-86" value="CheckDuplicate()" style="edgeLabel;html=1;align=center;verticalAlign=middle;resizable=0;points=[];fontSize=14;" parent="3GDsFyGk5Co5i_4Q3vj2-85" vertex="1" connectable="0">
          <mxGeometry x="0.1153" relative="1" as="geometry">
            <mxPoint x="8" as="offset" />
          </mxGeometry>
        </mxCell>
        <mxCell id="3GDsFyGk5Co5i_4Q3vj2-87" style="edgeStyle=elbowEdgeStyle;rounded=0;orthogonalLoop=1;jettySize=auto;html=1;elbow=vertical;curved=0;" parent="1" source="3GDsFyGk5Co5i_4Q3vj2-84" target="3GDsFyGk5Co5i_4Q3vj2-80" edge="1">
          <mxGeometry relative="1" as="geometry">
            <Array as="points">
              <mxPoint x="168" y="930" />
            </Array>
          </mxGeometry>
        </mxCell>
        <mxCell id="3GDsFyGk5Co5i_4Q3vj2-88" value="duplicateIndex" style="edgeLabel;html=1;align=center;verticalAlign=middle;resizable=0;points=[];fontSize=14;" parent="3GDsFyGk5Co5i_4Q3vj2-87" vertex="1" connectable="0">
          <mxGeometry x="-0.0828" y="1" relative="1" as="geometry">
            <mxPoint as="offset" />
          </mxGeometry>
        </mxCell>
        <mxCell id="3GDsFyGk5Co5i_4Q3vj2-113" value="" style="edgeStyle=orthogonalEdgeStyle;rounded=0;orthogonalLoop=1;jettySize=auto;html=1;" parent="1" source="3GDsFyGk5Co5i_4Q3vj2-92" target="3GDsFyGk5Co5i_4Q3vj2-112" edge="1">
          <mxGeometry relative="1" as="geometry" />
        </mxCell>
        <mxCell id="3GDsFyGk5Co5i_4Q3vj2-115" value="False" style="edgeLabel;html=1;align=center;verticalAlign=middle;resizable=0;points=[];fontSize=14;" parent="3GDsFyGk5Co5i_4Q3vj2-113" vertex="1" connectable="0">
          <mxGeometry x="-0.842" relative="1" as="geometry">
            <mxPoint as="offset" />
          </mxGeometry>
        </mxCell>
        <mxCell id="IwK8Sl99HdJAbC6vdd_C-16" value="" style="edgeStyle=orthogonalEdgeStyle;rounded=0;orthogonalLoop=1;jettySize=auto;html=1;" parent="1" source="3GDsFyGk5Co5i_4Q3vj2-92" target="IwK8Sl99HdJAbC6vdd_C-15" edge="1">
          <mxGeometry relative="1" as="geometry" />
        </mxCell>
        <mxCell id="IwK8Sl99HdJAbC6vdd_C-17" value="True" style="edgeLabel;html=1;align=center;verticalAlign=middle;resizable=0;points=[];fontSize=14;" parent="IwK8Sl99HdJAbC6vdd_C-16" vertex="1" connectable="0">
          <mxGeometry x="-0.226" y="-1" relative="1" as="geometry">
            <mxPoint as="offset" />
          </mxGeometry>
        </mxCell>
        <mxCell id="3GDsFyGk5Co5i_4Q3vj2-92" value="&lt;div&gt;duplicate&lt;/div&gt;&lt;div&gt;Index == -1&lt;/div&gt;" style="rhombus;whiteSpace=wrap;html=1;" parent="1" vertex="1">
          <mxGeometry x="467" y="892" width="90" height="90" as="geometry" />
        </mxCell>
        <mxCell id="3GDsFyGk5Co5i_4Q3vj2-94" value="&lt;div&gt;Answer&lt;/div&gt;&lt;div&gt;And&lt;/div&gt;&lt;div&gt;Speak&lt;/div&gt;" style="ellipse;whiteSpace=wrap;html=1;" parent="1" vertex="1">
          <mxGeometry x="689" y="1047" width="80" height="80" as="geometry" />
        </mxCell>
        <mxCell id="3GDsFyGk5Co5i_4Q3vj2-98" style="edgeStyle=orthogonalEdgeStyle;rounded=0;orthogonalLoop=1;jettySize=auto;html=1;entryX=1.1;entryY=0.179;entryDx=0;entryDy=0;entryPerimeter=0;" parent="1" source="3GDsFyGk5Co5i_4Q3vj2-94" target="3GDsFyGk5Co5i_4Q3vj2-97" edge="1">
          <mxGeometry relative="1" as="geometry" />
        </mxCell>
        <mxCell id="3GDsFyGk5Co5i_4Q3vj2-99" value="AnswerAndSpeak.Call" style="edgeLabel;html=1;align=center;verticalAlign=middle;resizable=0;points=[];fontSize=14;" parent="3GDsFyGk5Co5i_4Q3vj2-98" vertex="1" connectable="0">
          <mxGeometry x="-0.0019" y="2" relative="1" as="geometry">
            <mxPoint x="-80" y="-22" as="offset" />
          </mxGeometry>
        </mxCell>
        <mxCell id="3GDsFyGk5Co5i_4Q3vj2-101" style="edgeStyle=elbowEdgeStyle;rounded=0;orthogonalLoop=1;jettySize=auto;html=1;elbow=vertical;curved=0;entryX=1.14;entryY=0.14;entryDx=0;entryDy=0;entryPerimeter=0;" parent="1" source="3GDsFyGk5Co5i_4Q3vj2-97" target="3GDsFyGk5Co5i_4Q3vj2-100" edge="1">
          <mxGeometry relative="1" as="geometry" />
        </mxCell>
        <mxCell id="3GDsFyGk5Co5i_4Q3vj2-102" value="AnswerAndSpeak()" style="edgeLabel;html=1;align=center;verticalAlign=middle;resizable=0;points=[];fontSize=14;" parent="3GDsFyGk5Co5i_4Q3vj2-101" vertex="1" connectable="0">
          <mxGeometry x="0.097" y="-2" relative="1" as="geometry">
            <mxPoint as="offset" />
          </mxGeometry>
        </mxCell>
        <mxCell id="3GDsFyGk5Co5i_4Q3vj2-103" style="edgeStyle=elbowEdgeStyle;rounded=0;orthogonalLoop=1;jettySize=auto;html=1;elbow=vertical;curved=0;entryX=-0.1;entryY=0.764;entryDx=0;entryDy=0;entryPerimeter=0;" parent="1" source="3GDsFyGk5Co5i_4Q3vj2-100" target="3GDsFyGk5Co5i_4Q3vj2-97" edge="1">
          <mxGeometry relative="1" as="geometry" />
        </mxCell>
        <mxCell id="3GDsFyGk5Co5i_4Q3vj2-104" value="Return" style="edgeLabel;html=1;align=center;verticalAlign=middle;resizable=0;points=[];fontSize=14;" parent="3GDsFyGk5Co5i_4Q3vj2-103" vertex="1" connectable="0">
          <mxGeometry x="-0.1328" y="3" relative="1" as="geometry">
            <mxPoint as="offset" />
          </mxGeometry>
        </mxCell>
        <mxCell id="3GDsFyGk5Co5i_4Q3vj2-106" style="edgeStyle=orthogonalEdgeStyle;rounded=0;orthogonalLoop=1;jettySize=auto;html=1;elbow=vertical;entryX=1;entryY=0.5;entryDx=0;entryDy=0;exitX=1.05;exitY=0.867;exitDx=0;exitDy=0;exitPerimeter=0;" parent="1" source="3GDsFyGk5Co5i_4Q3vj2-97" target="3GDsFyGk5Co5i_4Q3vj2-20" edge="1">
          <mxGeometry relative="1" as="geometry">
            <mxPoint x="425" y="927" as="sourcePoint" />
            <Array as="points">
              <mxPoint x="930" y="1145" />
              <mxPoint x="930" y="237" />
            </Array>
          </mxGeometry>
        </mxCell>
        <mxCell id="3GDsFyGk5Co5i_4Q3vj2-127" value="Return" style="edgeLabel;html=1;align=center;verticalAlign=middle;resizable=0;points=[];fontSize=14;" parent="3GDsFyGk5Co5i_4Q3vj2-106" vertex="1" connectable="0">
          <mxGeometry x="-0.7931" y="2" relative="1" as="geometry">
            <mxPoint x="-100" as="offset" />
          </mxGeometry>
        </mxCell>
        <mxCell id="3GDsFyGk5Co5i_4Q3vj2-112" value="&lt;div&gt;Shorten&lt;/div&gt;&lt;div&gt;And&lt;/div&gt;&lt;div&gt;Speak&lt;/div&gt;" style="ellipse;whiteSpace=wrap;html=1;" parent="1" vertex="1">
          <mxGeometry x="472" y="1204" width="80" height="80" as="geometry" />
        </mxCell>
        <mxCell id="3GDsFyGk5Co5i_4Q3vj2-118" style="edgeStyle=orthogonalEdgeStyle;rounded=0;orthogonalLoop=1;jettySize=auto;html=1;entryX=1.025;entryY=0.138;entryDx=0;entryDy=0;entryPerimeter=0;" parent="1" source="3GDsFyGk5Co5i_4Q3vj2-112" target="3GDsFyGk5Co5i_4Q3vj2-117" edge="1">
          <mxGeometry relative="1" as="geometry" />
        </mxCell>
        <mxCell id="3GDsFyGk5Co5i_4Q3vj2-128" value="ShortenAndSpeak.Call" style="edgeLabel;html=1;align=center;verticalAlign=middle;resizable=0;points=[];fontSize=14;" parent="3GDsFyGk5Co5i_4Q3vj2-118" vertex="1" connectable="0">
          <mxGeometry x="-0.1188" y="-1" relative="1" as="geometry">
            <mxPoint x="-6" y="1" as="offset" />
          </mxGeometry>
        </mxCell>
        <mxCell id="3GDsFyGk5Co5i_4Q3vj2-120" style="edgeStyle=elbowEdgeStyle;rounded=0;orthogonalLoop=1;jettySize=auto;html=1;elbow=vertical;curved=0;entryX=1.133;entryY=0.131;entryDx=0;entryDy=0;entryPerimeter=0;" parent="1" source="3GDsFyGk5Co5i_4Q3vj2-117" target="3GDsFyGk5Co5i_4Q3vj2-116" edge="1">
          <mxGeometry relative="1" as="geometry" />
        </mxCell>
        <mxCell id="3GDsFyGk5Co5i_4Q3vj2-122" value="ShortenAndSpeak()" style="edgeLabel;html=1;align=center;verticalAlign=middle;resizable=0;points=[];fontSize=14;" parent="3GDsFyGk5Co5i_4Q3vj2-120" vertex="1" connectable="0">
          <mxGeometry x="0.0537" relative="1" as="geometry">
            <mxPoint as="offset" />
          </mxGeometry>
        </mxCell>
        <mxCell id="3GDsFyGk5Co5i_4Q3vj2-121" style="edgeStyle=elbowEdgeStyle;rounded=0;orthogonalLoop=1;jettySize=auto;html=1;elbow=vertical;curved=0;" parent="1" source="3GDsFyGk5Co5i_4Q3vj2-116" target="3GDsFyGk5Co5i_4Q3vj2-117" edge="1">
          <mxGeometry relative="1" as="geometry" />
        </mxCell>
        <mxCell id="3GDsFyGk5Co5i_4Q3vj2-123" value="Return" style="edgeLabel;html=1;align=center;verticalAlign=middle;resizable=0;points=[];fontSize=14;" parent="3GDsFyGk5Co5i_4Q3vj2-121" vertex="1" connectable="0">
          <mxGeometry x="-0.0525" relative="1" as="geometry">
            <mxPoint as="offset" />
          </mxGeometry>
        </mxCell>
        <mxCell id="3GDsFyGk5Co5i_4Q3vj2-124" style="edgeStyle=orthogonalEdgeStyle;rounded=0;orthogonalLoop=1;jettySize=auto;html=1;elbow=vertical;entryX=1;entryY=1;entryDx=0;entryDy=0;" parent="1" source="3GDsFyGk5Co5i_4Q3vj2-117" target="3GDsFyGk5Co5i_4Q3vj2-20" edge="1">
          <mxGeometry relative="1" as="geometry">
            <Array as="points">
              <mxPoint x="910" y="1337" />
              <mxPoint x="910" y="265" />
            </Array>
          </mxGeometry>
        </mxCell>
        <mxCell id="3GDsFyGk5Co5i_4Q3vj2-126" value="Return" style="edgeLabel;html=1;align=center;verticalAlign=middle;resizable=0;points=[];fontSize=14;" parent="3GDsFyGk5Co5i_4Q3vj2-124" vertex="1" connectable="0">
          <mxGeometry x="-0.8463" y="3" relative="1" as="geometry">
            <mxPoint as="offset" />
          </mxGeometry>
        </mxCell>
        <mxCell id="IwK8Sl99HdJAbC6vdd_C-1" value="Set&lt;br&gt;Language" style="ellipse;whiteSpace=wrap;html=1;" parent="1" vertex="1">
          <mxGeometry x="578" y="527" width="80" height="80" as="geometry" />
        </mxCell>
        <mxCell id="IwK8Sl99HdJAbC6vdd_C-5" style="edgeStyle=orthogonalEdgeStyle;rounded=0;orthogonalLoop=1;jettySize=auto;html=1;exitX=0;exitY=0.5;exitDx=0;exitDy=0;" parent="1" source="IwK8Sl99HdJAbC6vdd_C-1" target="IwK8Sl99HdJAbC6vdd_C-4" edge="1">
          <mxGeometry relative="1" as="geometry">
            <Array as="points">
              <mxPoint x="395" y="567" />
              <mxPoint x="395" y="567" />
            </Array>
          </mxGeometry>
        </mxCell>
        <mxCell id="IwK8Sl99HdJAbC6vdd_C-35" value="SetLanguage.Call" style="edgeLabel;html=1;align=center;verticalAlign=middle;resizable=0;points=[];fontSize=14;" parent="IwK8Sl99HdJAbC6vdd_C-5" vertex="1" connectable="0">
          <mxGeometry x="0.327" y="1" relative="1" as="geometry">
            <mxPoint x="-1" as="offset" />
          </mxGeometry>
        </mxCell>
        <mxCell id="IwK8Sl99HdJAbC6vdd_C-6" style="edgeStyle=elbowEdgeStyle;rounded=0;orthogonalLoop=1;jettySize=auto;html=1;elbow=vertical;curved=0;entryX=0.5;entryY=1;entryDx=0;entryDy=0;fillColor=#f8cecc;strokeColor=#b85450;strokeWidth=3;exitX=1.012;exitY=0.898;exitDx=0;exitDy=0;exitPerimeter=0;" parent="1" source="3GDsFyGk5Co5i_4Q3vj2-53" target="3GDsFyGk5Co5i_4Q3vj2-30" edge="1">
          <mxGeometry relative="1" as="geometry">
            <Array as="points">
              <mxPoint x="385" y="487" />
            </Array>
          </mxGeometry>
        </mxCell>
        <mxCell id="IwK8Sl99HdJAbC6vdd_C-7" value="Language&lt;br&gt;Context&lt;br&gt;isPoiEnded?" style="edgeLabel;html=1;align=center;verticalAlign=middle;resizable=0;points=[];fontSize=14;" parent="IwK8Sl99HdJAbC6vdd_C-6" vertex="1" connectable="0">
          <mxGeometry x="-0.074" relative="1" as="geometry">
            <mxPoint x="-36" as="offset" />
          </mxGeometry>
        </mxCell>
        <mxCell id="IwK8Sl99HdJAbC6vdd_C-10" style="edgeStyle=elbowEdgeStyle;rounded=0;orthogonalLoop=1;jettySize=auto;html=1;elbow=horizontal;curved=0;" parent="1" edge="1">
          <mxGeometry relative="1" as="geometry">
            <mxPoint x="255" y="583.83" as="sourcePoint" />
            <mxPoint x="80" y="583.83" as="targetPoint" />
          </mxGeometry>
        </mxCell>
        <mxCell id="IwK8Sl99HdJAbC6vdd_C-11" value="SetLanguage()" style="edgeLabel;html=1;align=center;verticalAlign=middle;resizable=0;points=[];fontSize=14;" parent="IwK8Sl99HdJAbC6vdd_C-10" vertex="1" connectable="0">
          <mxGeometry x="0.0944" y="-2" relative="1" as="geometry">
            <mxPoint as="offset" />
          </mxGeometry>
        </mxCell>
        <mxCell id="IwK8Sl99HdJAbC6vdd_C-12" style="edgeStyle=elbowEdgeStyle;rounded=0;orthogonalLoop=1;jettySize=auto;html=1;elbow=horizontal;curved=0;" parent="1" edge="1">
          <mxGeometry relative="1" as="geometry">
            <mxPoint x="80" y="677" as="sourcePoint" />
            <mxPoint x="255" y="677" as="targetPoint" />
            <Array as="points">
              <mxPoint x="168" y="677" />
            </Array>
          </mxGeometry>
        </mxCell>
        <mxCell id="IwK8Sl99HdJAbC6vdd_C-13" value="Return" style="edgeLabel;html=1;align=center;verticalAlign=middle;resizable=0;points=[];fontSize=14;" parent="IwK8Sl99HdJAbC6vdd_C-12" vertex="1" connectable="0">
          <mxGeometry x="-0.0865" y="1" relative="1" as="geometry">
            <mxPoint as="offset" />
          </mxGeometry>
        </mxCell>
        <mxCell id="IwK8Sl99HdJAbC6vdd_C-14" style="edgeStyle=orthogonalEdgeStyle;rounded=0;orthogonalLoop=1;jettySize=auto;html=1;elbow=vertical;entryX=0;entryY=1;entryDx=0;entryDy=0;fillColor=#d5e8d4;strokeColor=#82b366;strokeWidth=3;" parent="1" source="IwK8Sl99HdJAbC6vdd_C-4" target="IwK8Sl99HdJAbC6vdd_C-1" edge="1">
          <mxGeometry relative="1" as="geometry">
            <mxPoint x="515" y="707" as="targetPoint" />
            <Array as="points">
              <mxPoint x="432" y="710" />
              <mxPoint x="432" y="595" />
            </Array>
          </mxGeometry>
        </mxCell>
        <mxCell id="IwK8Sl99HdJAbC6vdd_C-36" value="Return" style="edgeLabel;html=1;align=center;verticalAlign=middle;resizable=0;points=[];fontSize=14;" parent="IwK8Sl99HdJAbC6vdd_C-14" vertex="1" connectable="0">
          <mxGeometry x="-0.3429" y="1" relative="1" as="geometry">
            <mxPoint x="-66" as="offset" />
          </mxGeometry>
        </mxCell>
        <mxCell id="IwK8Sl99HdJAbC6vdd_C-18" style="edgeStyle=orthogonalEdgeStyle;rounded=0;orthogonalLoop=1;jettySize=auto;html=1;entryX=0.5;entryY=0;entryDx=0;entryDy=0;" parent="1" source="IwK8Sl99HdJAbC6vdd_C-15" target="3GDsFyGk5Co5i_4Q3vj2-94" edge="1">
          <mxGeometry relative="1" as="geometry" />
        </mxCell>
        <mxCell id="IwK8Sl99HdJAbC6vdd_C-19" value="False" style="edgeLabel;html=1;align=center;verticalAlign=middle;resizable=0;points=[];fontSize=14;" parent="IwK8Sl99HdJAbC6vdd_C-18" vertex="1" connectable="0">
          <mxGeometry x="-0.346" relative="1" as="geometry">
            <mxPoint as="offset" />
          </mxGeometry>
        </mxCell>
        <mxCell id="IwK8Sl99HdJAbC6vdd_C-21" value="" style="edgeStyle=orthogonalEdgeStyle;rounded=0;orthogonalLoop=1;jettySize=auto;html=1;exitX=1;exitY=0.5;exitDx=0;exitDy=0;" parent="1" source="IwK8Sl99HdJAbC6vdd_C-15" target="IwK8Sl99HdJAbC6vdd_C-20" edge="1">
          <mxGeometry relative="1" as="geometry">
            <Array as="points">
              <mxPoint x="870" y="902" />
              <mxPoint x="870" y="1407" />
            </Array>
          </mxGeometry>
        </mxCell>
        <mxCell id="IwK8Sl99HdJAbC6vdd_C-41" value="True" style="edgeLabel;html=1;align=center;verticalAlign=middle;resizable=0;points=[];fontSize=14;" parent="IwK8Sl99HdJAbC6vdd_C-21" vertex="1" connectable="0">
          <mxGeometry x="-0.8632" y="2" relative="1" as="geometry">
            <mxPoint x="-25" y="2" as="offset" />
          </mxGeometry>
        </mxCell>
        <mxCell id="IwK8Sl99HdJAbC6vdd_C-15" value="Context in&lt;br&gt;&lt;div&gt;[&quot;explainFunction&quot;,&lt;/div&gt;&lt;div&gt;&quot;explainDescription&quot;]&lt;/div&gt;" style="rhombus;whiteSpace=wrap;html=1;" parent="1" vertex="1">
          <mxGeometry x="653.5" y="827" width="151" height="150" as="geometry" />
        </mxCell>
        <mxCell id="IwK8Sl99HdJAbC6vdd_C-20" value="&lt;div&gt;Interpret&lt;/div&gt;&lt;div&gt;Command&lt;/div&gt;" style="ellipse;whiteSpace=wrap;html=1;" parent="1" vertex="1">
          <mxGeometry x="521.5" y="1373" width="80" height="80" as="geometry" />
        </mxCell>
        <mxCell id="IwK8Sl99HdJAbC6vdd_C-24" style="edgeStyle=orthogonalEdgeStyle;rounded=0;orthogonalLoop=1;jettySize=auto;html=1;entryX=1.04;entryY=0.088;entryDx=0;entryDy=0;entryPerimeter=0;" parent="1" source="IwK8Sl99HdJAbC6vdd_C-20" target="IwK8Sl99HdJAbC6vdd_C-23" edge="1">
          <mxGeometry relative="1" as="geometry" />
        </mxCell>
        <mxCell id="IwK8Sl99HdJAbC6vdd_C-25" value="InterpretCommand.Call" style="edgeLabel;html=1;align=center;verticalAlign=middle;resizable=0;points=[];fontSize=14;" parent="IwK8Sl99HdJAbC6vdd_C-24" vertex="1" connectable="0">
          <mxGeometry x="0.1834" relative="1" as="geometry">
            <mxPoint x="17" y="1" as="offset" />
          </mxGeometry>
        </mxCell>
        <mxCell id="IwK8Sl99HdJAbC6vdd_C-28" style="edgeStyle=elbowEdgeStyle;rounded=0;orthogonalLoop=1;jettySize=auto;html=1;elbow=horizontal;curved=0;" parent="1" source="IwK8Sl99HdJAbC6vdd_C-23" target="IwK8Sl99HdJAbC6vdd_C-22" edge="1">
          <mxGeometry relative="1" as="geometry">
            <Array as="points">
              <mxPoint x="175" y="1437" />
            </Array>
          </mxGeometry>
        </mxCell>
        <mxCell id="IwK8Sl99HdJAbC6vdd_C-31" value="InterpretCommand()" style="edgeLabel;html=1;align=center;verticalAlign=middle;resizable=0;points=[];fontSize=14;" parent="IwK8Sl99HdJAbC6vdd_C-28" vertex="1" connectable="0">
          <mxGeometry x="0.101" y="-1" relative="1" as="geometry">
            <mxPoint as="offset" />
          </mxGeometry>
        </mxCell>
        <mxCell id="IwK8Sl99HdJAbC6vdd_C-29" style="edgeStyle=elbowEdgeStyle;rounded=0;orthogonalLoop=1;jettySize=auto;html=1;elbow=horizontal;curved=0;" parent="1" source="IwK8Sl99HdJAbC6vdd_C-22" target="IwK8Sl99HdJAbC6vdd_C-23" edge="1">
          <mxGeometry relative="1" as="geometry">
            <Array as="points">
              <mxPoint x="168" y="1507" />
            </Array>
          </mxGeometry>
        </mxCell>
        <mxCell id="IwK8Sl99HdJAbC6vdd_C-32" value="Return" style="edgeLabel;html=1;align=center;verticalAlign=middle;resizable=0;points=[];fontSize=14;" parent="IwK8Sl99HdJAbC6vdd_C-29" vertex="1" connectable="0">
          <mxGeometry x="-0.0686" y="1" relative="1" as="geometry">
            <mxPoint as="offset" />
          </mxGeometry>
        </mxCell>
        <mxCell id="IwK8Sl99HdJAbC6vdd_C-30" style="edgeStyle=orthogonalEdgeStyle;rounded=0;orthogonalLoop=1;jettySize=auto;html=1;elbow=vertical;entryX=1;entryY=0;entryDx=0;entryDy=0;" parent="1" source="IwK8Sl99HdJAbC6vdd_C-23" target="3GDsFyGk5Co5i_4Q3vj2-20" edge="1">
          <mxGeometry relative="1" as="geometry">
            <mxPoint x="805" y="1467" as="targetPoint" />
            <Array as="points">
              <mxPoint x="890" y="1537" />
              <mxPoint x="890" y="209" />
            </Array>
          </mxGeometry>
        </mxCell>
        <mxCell id="IwK8Sl99HdJAbC6vdd_C-33" value="Return" style="edgeLabel;html=1;align=center;verticalAlign=middle;resizable=0;points=[];fontSize=14;" parent="IwK8Sl99HdJAbC6vdd_C-30" vertex="1" connectable="0">
          <mxGeometry x="-0.7475" relative="1" as="geometry">
            <mxPoint as="offset" />
          </mxGeometry>
        </mxCell>
        <mxCell id="IwK8Sl99HdJAbC6vdd_C-39" style="edgeStyle=elbowEdgeStyle;rounded=0;orthogonalLoop=1;jettySize=auto;html=1;elbow=vertical;curved=0;" parent="1" source="aM9ryv3xv72pqoxQDRHE-4" target="3GDsFyGk5Co5i_4Q3vj2-50" edge="1">
          <mxGeometry relative="1" as="geometry">
            <Array as="points">
              <mxPoint x="170" y="230" />
            </Array>
          </mxGeometry>
        </mxCell>
        <mxCell id="IwK8Sl99HdJAbC6vdd_C-40" value="&lt;div&gt;Interaction&lt;/div&gt;" style="edgeLabel;html=1;align=center;verticalAlign=middle;resizable=0;points=[];fontSize=14;" parent="IwK8Sl99HdJAbC6vdd_C-39" vertex="1" connectable="0">
          <mxGeometry x="-0.0629" y="1" relative="1" as="geometry">
            <mxPoint as="offset" />
          </mxGeometry>
        </mxCell>
        <mxCell id="IwK8Sl99HdJAbC6vdd_C-43" value="" style="edgeStyle=orthogonalEdgeStyle;rounded=0;orthogonalLoop=1;jettySize=auto;html=1;fillColor=#e1d5e7;strokeColor=#9673a6;strokeWidth=3;entryX=0;entryY=1;entryDx=0;entryDy=0;" parent="1" source="3GDsFyGk5Co5i_4Q3vj2-80" target="3GDsFyGk5Co5i_4Q3vj2-77" edge="1">
          <mxGeometry relative="1" as="geometry">
            <mxPoint x="265" y="574" as="sourcePoint" />
            <mxPoint x="465" y="807" as="targetPoint" />
            <Array as="points">
              <mxPoint x="410" y="950" />
              <mxPoint x="410" y="818" />
            </Array>
          </mxGeometry>
        </mxCell>
        <mxCell id="IwK8Sl99HdJAbC6vdd_C-44" value="&lt;font&gt;duplicateIndex&lt;/font&gt;" style="edgeLabel;html=1;align=center;verticalAlign=middle;resizable=0;points=[];fontSize=14;" parent="IwK8Sl99HdJAbC6vdd_C-43" vertex="1" connectable="0">
          <mxGeometry x="-0.0646" y="2" relative="1" as="geometry">
            <mxPoint x="82" y="-57" as="offset" />
          </mxGeometry>
        </mxCell>
        <mxCell id="bHQPJ1XZZO3Wn5CJuthE-1" style="edgeStyle=orthogonalEdgeStyle;rounded=0;orthogonalLoop=1;jettySize=auto;html=1;entryX=0.5;entryY=0;entryDx=0;entryDy=0;fillColor=#d5e8d4;strokeColor=#82b366;strokeWidth=3;" parent="1" source="IwK8Sl99HdJAbC6vdd_C-1" target="3GDsFyGk5Co5i_4Q3vj2-77" edge="1">
          <mxGeometry relative="1" as="geometry" />
        </mxCell>
        <mxCell id="bHQPJ1XZZO3Wn5CJuthE-2" value="Interaction" style="edgeLabel;html=1;align=center;verticalAlign=middle;resizable=0;points=[];fontSize=14;" parent="bHQPJ1XZZO3Wn5CJuthE-1" vertex="1" connectable="0">
          <mxGeometry x="-0.219" relative="1" as="geometry">
            <mxPoint y="27" as="offset" />
          </mxGeometry>
        </mxCell>
        <mxCell id="bHQPJ1XZZO3Wn5CJuthE-3" value="&lt;font style=&quot;font-size: 14px;&quot;&gt;IsBeginningOfConversation=False&lt;/font&gt;" style="edgeLabel;html=1;align=center;verticalAlign=middle;resizable=0;points=[];" parent="bHQPJ1XZZO3Wn5CJuthE-1" vertex="1" connectable="0">
          <mxGeometry x="-0.5676" relative="1" as="geometry">
            <mxPoint x="12" y="22" as="offset" />
          </mxGeometry>
        </mxCell>
      </root>
    </mxGraphModel>
  </diagram>
</mxfile>
